<?xml version="1.0" standalone="no"?>
<!DOCTYPE svg PUBLIC "-//W3C//DTD SVG 20010904//EN"
 "http://www.w3.org/TR/2001/REC-SVG-20010904/DTD/svg10.dtd">
<svg version="1.0" xmlns="http://www.w3.org/2000/svg"
 width="320.000000pt" height="320.000000pt" viewBox="0 0 320.000000 320.000000"
 preserveAspectRatio="xMidYMid meet">
<metadata>
Created by potrace 1.11, written by Peter Selinger 2001-2013
</metadata>
<g transform="translate(0.000000,320.000000) scale(0.100000,-0.100000)"
fill="#000000" stroke="none">
<path d="M825 2680 c-11 -12 -15 -28 -11 -43 7 -30 93 -144 172 -227 177 -187
239 -286 251 -397 5 -46 3 -57 -21 -88 -44 -57 -30 -87 82 -177 30 -25 28 -39
-16 -89 -207 -236 -336 -506 -357 -745 -8 -88 -14 -126 -41 -232 -16 -64 -16
-82 -6 -155 7 -46 12 -155 12 -244 0 -88 3 -188 6 -222 l7 -61 206 0 207 0 23
73 c50 157 112 247 170 247 57 0 73 47 110 326 24 177 49 259 130 426 136 284
296 496 481 636 100 76 243 233 414 457 38 49 73 92 77 95 14 10 67 106 73
133 8 36 -18 93 -47 101 -12 3 -46 6 -76 6 l-54 0 -88 -89 c-108 -109 -144
-130 -289 -171 -63 -18 -126 -38 -140 -45 -14 -7 -72 -27 -130 -44 -127 -37
-221 -82 -333 -159 -26 -18 -55 -32 -64 -30 -19 3 -21 7 -86 148 -90 195 -215
353 -352 447 -67 45 -257 143 -278 143 -8 0 -22 -9 -32 -20z"/>
</g>
</svg>
